:SAMPLES-PER-SECOND 30
:FULLY-SPECIFIED
:DEGREES
296
root  45.9306 38.4765 1.52382 51.3182 86.7108 54.4572
RightUpLeg  -4.86504 -0.0750874 -11.0093
RightLeg  51.1444 -0.723303 -1.32487
RightFoot  -7.71128 -0.0953706 1.35836
RightToes  -5.8209e-011 0 -3.6325e-017
Spine  19.1583 -0.654128 3.08449
Spine1  4.24489 1.65122 -9.95687
HEad  -31.5086 4.75519 -2.0548
LeftShoulder1  0.462625 2.38224 -34.9849
LeftArm  1.56382 4.41039 -31.4012
LeftForeArm  24.288 2.03707 -12.3473
LeftHand  0.0268917 9.55267 2.10318
RightShoulder  -0.585952 -4.99156 32.5526
RightArm  9.7845 -0.608788 42.0157
RightForeArm  -14.3943 -1.17194 6.89949
RightHand  -0.647717 6.12982 -6.83918
LeftUpLeg  -13.7122 6.90477 -0.543421
LeftLeg  11.8504 -3.98326 -3.00931
LeftFoot  7.22695 -0.593592 3.36021
LeftToes  -8.31281e-010 4.41007e-011 3.74621e-011
297
root  45.4452 38.3178 1.72938 61.6567 86.6765 65.2953
RightUpLeg  -1.70862 0.555984 -11.3171
RightLeg  49.8327 0.220581 -0.0816296
RightFoot  -8.19938 -0.10987 2.00391
RightToes  -5.8209e-011 0 -3.6325e-017
Spine  17.9486 -0.549682 2.34642
Spine1  5.27867 1.39761 -8.79772
HEad  -30.3507 4.59695 -2.68584
LeftShoulder1  0.0901028 3.29788 -36.5933
LeftArm  1.76219 17.4404 -30.7466
LeftForeArm  24.2081 -0.560351 -11.4879
LeftHand  0.0397274 9.59918 2.51542
RightShoulder  -0.502051 -4.81237 31.3464
RightArm  9.61986 -11.663 41.7238
RightForeArm  -15.479 0.430134 6.41822
RightHand  -0.621796 6.22281 -6.54159
LeftUpLeg  -14.4174 6.83886 -0.860842
LeftLeg  12.5142 -4.48699 -2.82611
LeftFoot  7.78243 -0.582827 3.17756
LeftToes  -8.31281e-010 4.41007e-011 3.74621e-011
298
root  44.8253 38.1479 1.955 60.727 86.3309 65.0721
RightUpLeg  1.52109 1.80524 -11.3631
RightLeg  46.296 1.93147 1.82694
RightFoot  -8.41763 -0.177453 4.2909
RightToes  -5.8209e-011 0 -3.6325e-017
Spine  17.1714 -0.35133 3.29354
Spine1  6.25704 2.04103 -9.82176
HEad  -28.721 3.3901 -2.47522
LeftShoulder1  0.0374654 3.41497 -36.1254
LeftArm  0.983087 29.5067 -31.1897
LeftForeArm  22.9656 -3.41008 -10.1872
LeftHand  -0.0753703 9.73025 -0.606743
RightShoulder  -0.784448 -5.51654 32.287
RightArm  10.8122 -19.6958 39.7504
RightForeArm  -14.6873 2.01635 6.37364
RightHand  -0.583837 6.19575 -6.12608
LeftUpLeg  -14.8562 7.12607 -0.853821
LeftLeg  12.8322 -4.66348 -2.72858
LeftFoot  8.50109 -0.511431 2.62916
LeftToes  -8.31281e-010 4.41007e-011 3.74621e-011
299
root  44.0346 37.9281 2.2532 56.2468 86.0876 61.0593
RightUpLeg  4.27095 2.80883 -10.9611
RightLeg  41.4353 3.57724 3.12387
RightFoot  -9.80705 -0.13205 7.96405
RightToes  -5.8209e-011 0 -3.6325e-017
Spine  16.429 -0.0325867 3.62346
Spine1  6.94767 2.42079 -9.71219
HEad  -27.4901 2.40429 -2.35662
LeftShoulder1  0.0737453 3.32668 -35.4036
LeftArm  0.514115 39.2135 -32.3334
LeftForeArm  20.6603 -5.02119 -9.56051
LeftHand  -0.0622096 9.79537 -0.221355
RightShoulder  -0.873883 -5.74489 32.3392
RightArm  11.6028 -25.6145 38.2158
RightForeArm  -12.8487 3.22851 6.17699
RightHand  -0.276634 5.14474 -3.39447
LeftUpLeg  -15.8877 7.10791 -0.566006
LeftLeg  13.1906 -4.42258 -2.34038
LeftFoot  9.468 -0.387266 1.79117
LeftToes  -8.31281e-010 4.41007e-011 3.74621e-011
300
root  43.1599 37.7166 2.5735 47.6129 85.9301 52.9844
RightUpLeg  7.17468 2.83755 -10.4321
RightLeg  35.8502 3.98324 2.82558
RightFoot  -16.6526 0.452671 12.5854
RightToes  -5.8209e-011 0 -3.6325e-017
Spine  15.0563 0.33872 3.71408
Spine1  8.9556 2.63763 -8.43594
HEad  -26.5855 2.35691 -3.04572
LeftShoulder1  0.141436 3.16326 -35.3838
LeftArm  -1.07463 45.4353 -34.1103
LeftForeArm  19.4257 -5.59538 -8.75295
LeftHand  -0.041115 10.025 0.329405
RightShoulder  -0.909113 -5.85407 32.0441
RightArm  12.0477 -28.4336 37.2496
RightForeArm  -11.4583 4.09705 6.03202
RightHand  -0.338921 4.69742 -4.04416
LeftUpLeg  -16.6947 7.26017 0.153412
LeftLeg  13.1196 -4.13248 -2.01275
LeftFoot  10.8366 -0.270936 1.04797
LeftToes  -8.31281e-010 4.41007e-011 3.74621e-011
